#!OML:ASF F:\VICON\USERDATA\INSTALL\rory3\rory3.ASF
:FULLY-SPECIFIED
:DEGREES
10
root 0.5744590000000004 18.1209 -21.113199999999964 -3.3774600000000015 -2.15584 -5.728939999999999
lfemur -22.482299999999974 2.8518700000000066 -14.831099999999996
ltibia 67.34170000000006
lfoot -5.62542 -3.790309999999999
ltoes -3.860780000000001
rfemur -8.176010000000007 6.750850000000002 32.7675
rtibia 28.9868
rfoot -13.806300000000004 -7.417799999999999
rtoes 5.4343800000000035
lowerback nan 0.4690179999999997 4.140100000000003
upperback -0.11950699999999875 1.35542 3.2084800000000033
thorax -6.231890000000002 0.586879 0.8234390000000001
lowerneck -13.4804 -3.00077 -2.22374
upperneck 21.3215 -3.73167 0.25848099999999974
head 8.94847 -1.9039600000000003 0.025138800000000044
lclavicle -1.4567199999999994e-14 4.373260000000007e-15
lhumerus -33.9292 -0.2131149999999986 85.2692
lradius 27.520299999999995
lwrist 6.226250000000002
lhand -26.4782 22.7472
lfingers nan
lthumb 0.08391340000000114 52.727
rclavicle -1.4567199999999994e-14 4.373260000000007e-15
rhumerus -28.3483 -14.212399999999995 -78.7003
rradius 24.9282
rwrist 4.713379999999997
rhand -16.9175 nan
rfingers nan
rthumb 9.314909999999998 -17.71080000000001
11
root 0.5777839999999996 18.049 -20.4527 -2.8739000000000003 -2.608200000000001 -6.245680000000009
lfemur -26.15329999999998 2.5240199999999935 -14.286699999999994
ltibia 62.4148
lfoot -7.661600000000001 -1.2918000000000007
ltoes -4.227430000000001
rfemur -6.580610000000014 7.085809999999997 33.67099999999999
rtibia 29.729899999999994
rfoot -16.97460000000001 -8.053319999999996
rtoes 2.611539999999999
lowerback nan 0.9160270000000003 5.2241400000000064
upperback 0.30228700000000003 2.0228500000000005 2.8172999999999986
thorax -5.617779999999999 0.8920639999999993 -0.29468699999999937
lowerneck -15.507 -3.14195 -1.7760499999999997
upperneck 21.4622 -4.0533399999999995 0.5176819999999993
head 9.37204 -1.97737 -0.03505030000000023
lclavicle 1.0436199999999982e-15 -7.156250000000001e-15
lhumerus -33.770399999999995 -1.2597599999999973 85.2574
lradius 27.344199999999997
lwrist 6.273
lhand -26.397 21.0427
lfingers nan
lthumb 0.16230700000000065 51.0223
rclavicle 1.0436199999999982e-15 -7.156250000000001e-15
rhumerus -26.319800000000004 -12.5151 -80.3117
rradius 26.921700000000005
rwrist 2.42972
rhand -19.1439 nan
rfingers nan
rthumb 7.16621 -8.0966
12
root 0.5899850000000004 17.9788 -19.802699999999916 -2.4800600000000004 -2.9298800000000007 -6.881150000000007
lfemur -28.363600000000048 1.9091700000000045 -13.455499999999999
ltibia 54.92330000000004
lfoot -8.448260000000005 2.0327499999999983
ltoes -0.7747020000000013
rfemur -4.427800000000001 6.721870000000003 34.402499999999996
rtibia 29.510499999999993
rfoot -18.45460000000002 -7.607940000000003
rtoes 4.605569999999999
lowerback nan 1.0396299999999994 6.106400000000001
upperback 0.37685699999999994 2.301330000000001 2.792969999999998
thorax -5.58001 1.0065099999999996 -0.8568569999999999
lowerneck -15.985299999999999 -3.08936 -1.8316
upperneck 21.2553 -3.9306900000000002 0.432524000000001
head 9.38644 -1.93193 -0.045598300000000425
lclavicle -7.106550000000013e-15 1.4511300000000005e-14
lhumerus -34.2702 -0.7795809999999981 85.2048
lradius 26.851099999999995
lwrist 5.679420000000002
lhand -27.1373 23.5798
lfingers nan
lthumb -0.552692 53.5588
rclavicle -7.106550000000013e-15 1.4511300000000005e-14
rhumerus -24.900199999999998 -9.94057999999999 -81.3851
rradius 28.608499999999996
rwrist 0.27738099999998855
rhand -19.5054 nan
rfingers nan
rthumb 6.81726 -7.60234
13
root 0.6087460000000003 17.9355 -19.134699999999974 -1.9142200000000007 -3.5764800000000014 -7.611930000000001
lfemur -29.488499999999984 1.09352000000001 -12.260999999999985
ltibia 44.859499999999976
lfoot -8.844269999999998 5.440480000000013
ltoes 6.9877800000000025
rfemur -1.663440000000005 7.020859999999997 35.2691
rtibia 27.8435
rfoot -19.070800000000013 -7.725630000000001
rtoes 4.998529999999999
lowerback nan 1.4697999999999993 7.183099999999994
upperback 0.5308660000000002 2.9608599999999985 2.6297699999999993
thorax -5.18591 1.315990000000002 -1.712460000000004
lowerneck -16.3859 -3.1278599999999996 -1.408110000000001
upperneck 20.9987 -4.06072 0.3357990000000009
head 9.36014 -1.9674499999999997 -0.16951199999999964
lclavicle -7.15624999999999e-15 -1.1131900000000002e-14
lhumerus -34.65090000000001 0.21661900000000134 84.5765
lradius 26.591100000000004
lwrist 4.27347
lhand -26.745 24.537400000000005
lfingers nan
lthumb -0.1738209999999999 54.5171
rclavicle -7.15624999999999e-15 -1.1131900000000002e-14
rhumerus -23.4947 -8.763480000000014 -82.1199
rradius 30.161999999999985
rwrist -1.1463299999999936
rhand -19.6123 nan
rfingers nan
rthumb 6.714119999999999 -7.960960000000001
14
root 0.6378840000000001 17.8653 -18.431899999999985 -0.9961309999999983 -4.1145099999999974 -8.010840000000014
lfemur -29.599699999999967 -0.4795480000000003 -11.052699999999993
ltibia 33.5543
lfoot -8.716260000000002 9.07122999999998
ltoes -6.412460000000007
rfemur 0.7449270000000272 6.948399999999996 35.56400000000001
rtibia 26.420000000000016
rfoot -20.341199999999986 -7.421839999999999
rtoes 3.78465
lowerback nan 1.697830000000002 7.518469999999994
upperback 0.03825839999999969 3.283680000000003 2.728770000000001
thorax -5.33729 1.4526200000000005 -1.8245199999999961
lowerneck -15.4299 -3.03238 -1.7260200000000003
upperneck 20.7433 -3.8581499999999997 0.3398819999999997
head 9.1007 -1.9038299999999997 -0.07138669999999978
lclavicle 5.429309999999994e-15 -1.9721522630525295e-31
lhumerus -36.00079999999999 1.8303899999999995 84.193
lradius 25.5098
lwrist 4.72492
lhand -27.0565 22.112400000000004
lfingers nan
lthumb -0.4746750000000003 52.0916
rclavicle 5.429309999999994e-15 -1.9721522630525295e-31
rhumerus -23.297499999999992 -6.8429699999999976 -82.37800000000001
rradius 30.815799999999992
rwrist -1.2416500000000008
rhand -19.590400000000002 nan
rfingers nan
rthumb 6.735280000000003 -6.628590000000001
